# xmcd
#
# Track frame offsets:
#	150
#	17231
#	31975
#	49914
#	67368
#	83864
#	97388
#	113911
#	130381
#	144110
#	160160
#
# Disc length: 2361 seconds
# Revision: 1
# Processed by: cddbd v1.5.2PL0 Copyright (c) Steve Scherf et al.
# Submitted via: dBpowerAMP V12.0
#
DISCID=9e09370b
DTITLE=Elles Bailey - Road I Call Home
DYEAR=2019
DGENRE=Rock
TTITLE0=Hell or High Water
TTITLE1=Wild Wild West
TTITLE2=Deeper
TTITLE3=What's the Matter with You
TTITLE4=Medicine Man
TTITLE5=Road I Call Home
TTITLE6=Foolish Hearts
TTITLE7=Help Somebody
TTITLE8=Little Piece of Heaven
TTITLE9=Miss Me When I'm Gone
TTITLE10=Light in the Distance
EXTD=
EXTT0=
EXTT1=
EXTT2=
EXTT3=
EXTT4=
EXTT5=
EXTT6=
EXTT7=
EXTT8=
EXTT9=
EXTT10=
PLAYORDER=
